<svg xmlns="http://www.w3.org/2000/svg" version="1.1" xmlns:xlink="http://www.w3.org/1999/xlink" xmlns:svgjs="http://svgjs.dev/svgjs" width="100%" height="100%" viewBox="0 0 1000 600"><rect width="1000" height="600" x="0" y="0" fill="#ff2d01"/><g><circle r="166.66666666666666" cx="353.64757792154944" cy="375.86984892011924" fill="#fbeaeb" transform="matrix(0.668517130207421,0,0,0.668517130207421,0,48.724531608112144)"/><path d="M343.40798221594366 376.169346886826L343.40798221594366 429.73466333152237Q335.99212370922316 440.34504550267627 322.70062346256265 445.621714055535Q309.43764574862024 450.86986007567566 291.7821979960819 450.86986007567566L291.7821979960819 450.86986007567566Q273.92709251451646 450.86986007567566 260.0936641462109 442.5127579892561Q246.26023577790545 434.12713337011826 238.67324207487604 418.696443169596Q231.11477090456478 403.23723043635573 230.91511317553767 382.90066460831065L230.91511317553767 382.90066460831065L230.91511317553767 370.1510924832951Q230.91511317553767 337.1790446611071 246.31728084334173 319.010191319642Q261.6909259784277 300.86986051089497 289.5859629767839 300.86986051089497L289.5859629767839 300.86986051089497Q312.4325116840266 300.86986051089497 326.3800301832047 312.56409892533884Q340.2990261496647 324.2298148070645 343.40798221594366 345.67875941111754L343.40798221594366 345.67875941111754L324.1552726311886 345.67875941111754Q318.7645139474572 316.69986616947136 289.6715305749384 316.69986616947136L289.6715305749384 316.69986616947136Q270.33325339202884 316.69986616947136 260.35036694067435 330.30511427603165Q250.36748048931986 343.8818398498737 250.25339035844723 369.6662094270864L250.25339035844723 369.6662094270864L250.25339035844723 381.5886281032756Q250.25339035844723 406.14652877360754 261.49126824940055 420.6359753944307Q272.7291461403539 435.1254220152538 291.8677655942364 435.1254220152538L291.8677655942364 435.1254220152538Q302.7063280271355 435.1254220152538 310.83524985180986 432.7295292669287Q318.9641716764842 430.3336365186036 324.26936276206123 424.6006074422543L324.26936276206123 424.6006074422543L324.26936276206123 391.8282173490934L290.4701614910467 391.8282173490934L290.4701614910467 376.169346886826L343.40798221594366 376.169346886826ZM476.3800297479854 302.8664378011659L476.3800297479854 318.7249659924604L429.4604634266193 318.7249659924604L429.4604634266193 448.87328278540474L410.29332144001876 448.87328278540474L410.29332144001876 318.7249659924604L363.48784524952526 318.7249659924604L363.48784524952526 302.8664378011659L476.3800297479854 302.8664378011659Z " fill="#2f3c7e" transform="matrix(0.668517130207421,0,0,0.668517130207421,0,48.724531608112144)"/><path d="M711.8011365842708 379.0508483642519L711.8011365842708 430.54993356917544Q704.6713377806074 440.75103031903257 691.892544540195 445.82415639087003Q679.1411736028737 450.86986015961656 662.1667679895363 450.86986015961656L662.1667679895363 450.86986015961656Q645.0004062545618 450.86986015961656 631.7005892554201 442.8351253539496Q618.4007722562785 434.7729682451916 611.1064396340689 419.9375022729532Q603.8395293149504 405.0746139976238 603.6475731933133 385.5225118937311L603.6475731933133 385.5225118937311L603.6475731933133 373.2647424120481Q603.6475731933133 341.56456003883636 618.4556168624606 324.0965529698607Q633.2362382285169 306.65596820397604 660.0552506515282 306.65596820397604L660.0552506515282 306.65596820397604Q682.0205154274302 306.65596820397604 695.4300216389357 317.8991124712917Q708.8121055473504 329.1148344355162 711.8011365842708 349.73640635995844L711.8011365842708 349.73640635995844L693.2910819978367 349.73640635995844Q688.1082667136351 321.8753464194886 660.1375175608013 321.8753464194886L660.1375175608013 321.8753464194886Q641.545196065094 321.8753464194886 631.9473899832393 334.95578499390206Q622.3495839013844 348.0088012652245 622.2398946890205 372.79856325950084L622.2398946890205 372.79856325950084L622.2398946890205 384.2610859515445Q622.2398946890205 407.8716889129072 633.0442821068798 421.80221888314213Q643.8486695247392 435.7327488533771 662.2490348988092 435.7327488533771L662.2490348988092 435.7327488533771Q672.6695100733945 435.7327488533771 680.4848664543333 433.4292753937319Q688.3002228352722 431.1258019340868 693.4007712102007 425.6139190127931L693.4007712102007 425.6139190127931L693.4007712102007 394.1056927612184L660.9053420473497 394.1056927612184L660.9053420473497 379.0508483642519L711.8011365842708 379.0508483642519ZM759.2417209317243 300.86986225177225L759.2417209317243 448.95029894324557L741.4172239225655 448.95029894324557L741.4172239225655 300.86986225177225L759.2417209317243 300.86986225177225ZM852.5598183504436 448.95029894324557L852.1759061071693 438.6395129810245Q841.7828532356751 450.86986015961656 821.6274604637803 450.86986015961656L821.6274604637803 450.86986015961656Q804.9547001844439 450.86986015961656 796.2069854984106 441.1897871684887Q787.4866931154683 431.50971417736093 787.4044262061952 412.5060581352885L787.4044262061952 412.5060581352885L787.4044262061952 344.63585798502993L805.228923215354 344.63585798502993L805.228923215354 412.03987898274124Q805.228923215354 435.7327488533771 824.5068022883366 435.7327488533771L824.5068022883366 435.7327488533771Q844.9638403942328 435.7327488533771 851.7097269546222 420.51337063786445L851.7097269546222 420.51337063786445L851.7097269546222 344.63585798502993L869.534223963781 344.63585798502993L869.534223963781 448.95029894324557L852.5598183504436 448.95029894324557ZM996.4172203659008 308.57552942034704L996.4172203659008 323.8223299389506L951.2801094780924 323.8223299389506L951.2801094780924 448.95029894324557L932.8797441040223 448.95029894324557L932.8797441040223 323.8223299389506L887.8523224285781 323.8223299389506L887.8523224285781 308.57552942034704L996.4172203659008 308.57552942034704ZM1070.073526468363 448.95029894324557L1069.6621919219979 438.6395129810245Q1059.2691390505038 450.86986015961656 1039.113746278609 450.86986015961656L1039.113746278609 450.86986015961656Q1022.4409859992726 450.86986015961656 1013.7206936163304 441.1897871684887Q1004.972978930297 431.50971417736093 1004.890712021024 412.5060581352885L1004.890712021024 412.5060581352885L1004.890712021024 344.63585798502993L1022.7152090301828 344.63585798502993L1022.7152090301828 412.03987898274124Q1022.7152090301828 435.7327488533771 1041.9930881031655 435.7327488533771L1041.9930881031655 435.7327488533771Q1062.4501262090616 435.7327488533771 1069.1960127694508 420.51337063786445L1069.1960127694508 420.51337063786445L1069.1960127694508 344.63585798502993L1087.0205097786097 344.63585798502993L1087.0205097786097 448.95029894324557L1070.073526468363 448.95029894324557ZM1202.4135611855947 396.40916622086354L1202.4135611855947 397.94481519396027Q1202.4135611855947 421.8570634893241 1191.4446399491894 436.3634618244704Q1180.4482964096928 450.86986015961656 1161.9382418232587 450.86986015961656L1161.9382418232587 450.86986015961656Q1142.166761294638 450.86986015961656 1131.3623738767787 436.9119078862906L1131.3623738767787 436.9119078862906L1130.512282480957 448.95029894324557L1114.113745232531 448.95029894324557L1114.113745232531 300.86986225177225L1131.9656645447808 300.86986225177225L1131.9656645447808 356.0983806770736Q1142.742629659549 342.71629676865894 1161.7462857016217 342.71629676865894Q1180.722519440603 342.71629676865894 1191.5817514646444 357.0855835883501Q1202.4135611855947 371.42744810495014 1202.4135611855947 396.40916622086354L1202.4135611855947 396.40916622086354ZM1184.5890641764358 395.9155647652253L1184.5890641764358 395.9155647652253Q1184.5890641764358 377.70715551279227 1177.5415322820454 367.78028179384535Q1170.521422690746 357.8534080748984 1157.3038726008776 357.8534080748984L1157.3038726008776 357.8534080748984Q1139.6713317133558 357.8534080748984 1131.9656645447808 374.2245230202336L1131.9656645447808 374.2245230202336L1131.9656645447808 419.3616339080419Q1140.137510865903 435.7327488533771 1157.4958287225145 435.7327488533771L1157.4958287225145 435.7327488533771Q1170.3294665691087 435.7327488533771 1177.4592653727723 425.80587513443015Q1184.5890641764358 415.87900141548323 1184.5890641764358 395.9155647652253ZM1268.1722439978453 450.86986015961656L1268.1722439978453 450.86986015961656Q1246.974803708492 450.86986015961656 1233.6749867093504 436.9393301893816Q1220.3477474071178 423.0088002191467 1220.3477474071178 399.6998425917852L1220.3477474071178 399.6998425917852L1220.3477474071178 396.40916622086354Q1220.3477474071178 380.8881426713499 1226.2983871778679 368.68521779584887Q1232.2216046455264 356.5097152234388 1242.86145824484 349.59929484450333Q1253.528734147244 342.71629676865894 1265.9510374474735 342.71629676865894L1265.9510374474735 342.71629676865894Q1286.2983863410054 342.71629676865894 1297.568952911412 356.0983806770736Q1308.8669417849096 369.50788688857926 1308.8669417849096 394.48960500449266L1308.8669417849096 394.48960500449266L1308.8669417849096 401.8936268390663L1238.1996667193675 401.8936268390663Q1238.5835789626417 417.33238347930694 1247.1941821332202 426.8205003487976Q1255.8322076068894 436.3086172182883 1269.1320246060309 436.3086172182883L1269.1320246060309 436.3086172182883Q1278.5927191724304 436.3086172182883 1285.146649611183 432.46949478554643Q1291.700580049935 428.6029500497135 1296.6091723032264 422.2409757325984L1296.6091723032264 422.2409757325984L1307.4958266303588 430.7418896908125Q1294.3879657528546 450.86986015961656 1268.1722439978453 450.86986015961656ZM1265.9510374474735 357.3598066192602L1265.9510374474735 357.3598066192602Q1255.1740723327048 357.3598066192602 1247.8248951043133 365.23000760638115Q1240.5031401790125 373.07278629041093 1238.775535084279 387.25011698846504L1238.775535084279 387.25011698846504L1291.01502247266 387.25011698846504L1291.01502247266 385.9064241370054Q1290.2471979861116 372.3049618038626 1283.693267547359 364.8460953631069Q1277.139337108607 357.3598066192602 1265.9510374474735 357.3598066192602Z " fill="#fbeaeb" transform="matrix(0.668517130207421,0,0,0.668517130207421,0,48.724531608112144)"/></g></svg>